<svg version="1.1" xmlns="http://www.w3.org/2000/svg" xmlns:xlink="http://www.w3.org/1999/xlink" width="830.38458" height="876.00215" viewBox="0,0,830.38458,876.00215"><defs><linearGradient x1="52.82201" y1="87.32993" x2="293.20327" y2="505.25118" gradientUnits="userSpaceOnUse" id="color-1"><stop offset="0" stop-color="#0084ff"/><stop offset="1" stop-color="#85ff65"/></linearGradient></defs><g transform="translate(240.67993,117.09259)"><g data-paper-data="{&quot;isPaintingLayer&quot;:true}" fill="url(#color-1)" fill-rule="nonzero" stroke="none" stroke-width="0" stroke-linecap="butt" stroke-linejoin="miter" stroke-miterlimit="10" stroke-dasharray="" stroke-dashoffset="0" style="mix-blend-mode: normal"><path d="M-0.29868,674.06855c0,0 -56.96523,-0.70753 -69.56767,-5.69582c-39.79288,-15.75078 -76.81946,-56.24098 -104.30977,-104.035c-42.81419,-74.43574 -66.50381,-308.19043 -66.50381,-308.19043c0,0 0.9657,-123.7015 100.89776,-196.48597c122.39976,-89.14859 352.72876,-133.23812 411.11564,-166.82127c56.77699,-32.65716 74.99049,25.67249 74.99049,25.67249c0,0 85.32779,64.95129 143.79127,149.48022c38.64231,55.87065 52.06368,131.70434 69.58891,162.1733c25.63633,44.57074 27.00109,106.26774 27.00109,106.26774c0,0 24.41296,126.97872 -66.05822,214.14986c-54.3463,52.36396 19.99544,165.90406 -59.37306,195.02568c-54.87336,20.13395 -285.43823,-18.23413 -307.31958,-5.64834c-31.8322,18.30935 -155.91208,28.92983 -188.802,5.4247c-26.3042,-18.79858 34.54895,-71.31712 34.54895,-71.31712z"/></g></g></svg>